<svg width="76" height="76" viewBox="0 0 76 76" fill="none" xmlns="http://www.w3.org/2000/svg">
<path d="M19.9509 52H16.9611C14.7519 52 12.8273 50.152 13.5291 48.0572C14.5987 44.865 17.2299 42.9344 21.8557 42.2658M27.9609 35.729C27.3789 35.913 26.7123 36 25.9611 36C22.6277 36 20.9611 34.2858 20.9611 30C20.9611 25.7143 22.6277 24 25.9611 24C26.7123 24 27.3789 24.0871 27.9609 24.271" stroke="#005715" stroke-width="3" stroke-linecap="round" stroke-linejoin="round"/>
<path d="M56.0499 52H59.0397C61.2489 52 63.1735 50.152 62.4717 48.0572C61.4021 44.865 58.7709 42.9344 54.1451 42.2658M48.0399 35.729C48.6219 35.913 49.2885 36 50.0397 36C53.3731 36 55.0397 34.2858 55.0397 30C55.0397 25.7143 53.3731 24 50.0397 24C49.2885 24 48.6219 24.0871 48.0399 24.271M38.0397 42C45.2667 42 49.1187 44.019 50.4717 48.0572C51.1735 50.152 49.2489 52 47.0397 52H29.0397C26.8306 52 24.9059 50.152 25.6077 48.0572C26.9607 44.019 30.8128 42 38.0397 42ZM38.0397 36C41.3731 36 43.0397 34.2858 43.0397 30C43.0397 25.7143 41.3731 24 38.0397 24C34.7064 24 33.0397 25.7143 33.0397 30C33.0397 34.2858 34.7064 36 38.0397 36Z" stroke="#005715" stroke-width="3" stroke-linecap="round" stroke-linejoin="round"/>
</svg>
