<svg width="120" height="120" viewBox="0 0 120 120" fill="none" xmlns="http://www.w3.org/2000/svg">
<path d="M46.3975 51.4414C46.7491 51.386 47.1089 51.4044 47.4531 51.4951C47.7972 51.5858 48.1189 51.7464 48.3975 51.9678C48.6761 52.1893 48.9062 52.4664 49.0723 52.7812C49.2383 53.0962 49.3369 53.4427 49.3623 53.7979C49.3876 54.1529 49.3383 54.5095 49.2188 54.8447C49.1021 55.1716 48.9191 55.4699 48.6836 55.7246L48.6846 55.7256L39.6641 66.999L39.665 67C39.4423 67.2834 39.1626 67.5173 38.8438 67.6855C38.525 67.8538 38.1741 67.9526 37.8145 67.9766L37.8037 67.9775H37.6582V67.9766C37.3204 67.9783 36.9856 67.9139 36.6729 67.7861C36.3596 67.6582 36.0742 67.4697 35.834 67.2314L35.833 67.2305L29.0674 60.4658C28.5835 59.9819 28.3125 59.3249 28.3125 58.6406C28.3126 57.9565 28.5837 57.3002 29.0674 56.8164C29.5513 56.3325 30.2083 56.0605 30.8926 56.0605C31.5768 56.0606 32.233 56.3326 32.7168 56.8164L37.4512 61.5508L44.6729 52.5352C44.8678 52.2486 45.1182 52.0036 45.4102 51.8164C45.7097 51.6244 46.0459 51.4968 46.3975 51.4414Z" fill="white" stroke="white" stroke-width="0.631579"/>
<path d="M45.9893 74.605C46.3409 74.5496 46.7007 74.568 47.0449 74.6587C47.389 74.7494 47.7107 74.91 47.9893 75.1313C48.2679 75.3529 48.498 75.6299 48.6641 75.9448C48.8301 76.2597 48.9287 76.6063 48.9541 76.9614C48.9794 77.3164 48.9301 77.6731 48.8105 78.0083C48.6939 78.3352 48.5109 78.6335 48.2754 78.8882L48.2764 78.8892L39.2559 90.1626L39.2568 90.1636C39.0341 90.447 38.7544 90.6809 38.4355 90.8491C38.1167 91.0174 37.7659 91.1162 37.4062 91.1401L37.3955 91.1411H37.25V91.1401C36.9121 91.1419 36.5774 91.0775 36.2646 90.9497C35.9514 90.8218 35.666 90.6333 35.4258 90.395L35.4248 90.394L28.6592 83.6294C28.1753 83.1455 27.9043 82.4885 27.9043 81.8042C27.9044 81.1201 28.1755 80.4638 28.6592 79.98C29.1431 79.4961 29.8001 79.2241 30.4844 79.2241C31.1686 79.2242 31.8248 79.4962 32.3086 79.98L37.043 84.7144L44.2646 75.6987C44.4596 75.4122 44.71 75.1672 45.002 74.98C45.3015 74.7879 45.6377 74.6604 45.9893 74.605Z" fill="white" stroke="white" stroke-width="0.631579"/>
<path d="M46.3975 28.8901C46.7491 28.8347 47.1089 28.8531 47.4531 28.9438C47.7972 29.0346 48.1189 29.1951 48.3975 29.4165C48.6761 29.638 48.9062 29.9151 49.0723 30.23C49.2383 30.5449 49.3369 30.8915 49.3623 31.2466C49.3876 31.6016 49.3383 31.9582 49.2188 32.2935C49.1021 32.6203 48.9191 32.9186 48.6836 33.1733L48.6846 33.1743L39.6641 44.4478L39.665 44.4487C39.4423 44.7322 39.1626 44.966 38.8438 45.1343C38.525 45.3025 38.1741 45.4013 37.8145 45.4253L37.8037 45.4263H37.6582V45.4253C37.3204 45.4271 36.9856 45.3626 36.6729 45.2349C36.3596 45.1069 36.0742 44.9185 35.834 44.6802L35.833 44.6792L29.0674 37.9146C28.5835 37.4307 28.3125 36.7737 28.3125 36.0894C28.3126 35.4053 28.5837 34.7489 29.0674 34.2651C29.5513 33.7813 30.2083 33.5093 30.8926 33.5093C31.5768 33.5093 32.233 33.7813 32.7168 34.2651L37.4512 38.9995L44.6729 29.9839C44.8678 29.6973 45.1182 29.4523 45.4102 29.2651C45.7097 29.0731 46.0459 28.9455 46.3975 28.8901Z" fill="white" stroke="white" stroke-width="0.631579"/>
<path d="M89.5264 35.7754C90.2081 35.7754 90.8616 36.0463 91.3438 36.5283C91.8258 37.0104 92.0976 37.6639 92.0977 38.3457C92.0977 39.0276 91.8259 39.6819 91.3438 40.1641C90.8617 40.646 90.208 40.9169 89.5264 40.917H55.6982C55.0166 40.9169 54.3629 40.646 53.8809 40.1641C53.3987 39.6819 53.1279 39.0276 53.1279 38.3457C53.128 37.6639 53.3988 37.0104 53.8809 36.5283C54.3629 36.0462 55.0165 35.7755 55.6982 35.7754H89.5264Z" fill="white" stroke="white" stroke-width="0.631579"/>
<path d="M89.5264 58.3242C90.2081 58.3243 90.8616 58.5951 91.3438 59.0771C91.8258 59.5592 92.0976 60.2128 92.0977 60.8945C92.0977 61.5764 91.8259 62.2307 91.3438 62.7129C90.8617 63.1948 90.208 63.4658 89.5264 63.4658H55.6982C55.0166 63.4657 54.3629 63.1949 53.8809 62.7129C53.3987 62.2307 53.1279 61.5764 53.1279 60.8945C53.128 60.2128 53.3988 59.5592 53.8809 59.0771C54.3629 58.5951 55.0165 58.3243 55.6982 58.3242H89.5264Z" fill="white" stroke="white" stroke-width="0.631579"/>
<path d="M89.5264 80.877C90.2081 80.877 90.8616 81.1478 91.3438 81.6299C91.8258 82.112 92.0976 82.7655 92.0977 83.4473C92.0977 84.1291 91.8259 84.7835 91.3438 85.2656C90.8617 85.7476 90.208 86.0185 89.5264 86.0186H55.6982C55.0166 86.0185 54.3629 85.7476 53.8809 85.2656C53.3987 84.7835 53.1279 84.1291 53.1279 83.4473C53.128 82.7655 53.3988 82.112 53.8809 81.6299C54.3629 81.1478 55.0165 80.877 55.6982 80.877H89.5264Z" fill="white" stroke="white" stroke-width="0.631579"/>
</svg>
