<svg width="120" height="120" viewBox="0 0 120 120" fill="none" xmlns="http://www.w3.org/2000/svg">
<path d="M30.6369 35.0469C29.8493 35.0469 29.2109 35.6853 29.2109 36.4728V74.2226H51.6138C52.7176 74.2226 53.8105 74.4404 54.8299 74.8637C55.8493 75.287 56.7751 75.9074 57.5543 76.6892C58.3334 77.4711 58.9505 78.3991 59.3703 79.42C59.79 80.4408 60.0041 81.5345 60.0002 82.6383V43.4333C60.0002 42.332 59.7833 41.2414 59.3618 40.2239C58.9404 39.2065 58.3226 38.2819 57.5439 37.5032C56.7651 36.7244 55.8406 36.1067 54.8231 35.6853C53.8057 35.2638 52.7151 35.0469 51.6138 35.0469H30.6369Z" stroke="white" stroke-width="5.05263" stroke-miterlimit="10"/>
<path d="M89.3634 35.0459C90.1509 35.0459 90.7893 35.6843 90.7893 36.4718V74.2216H68.3865C67.2827 74.2216 66.1897 74.4395 65.1703 74.8628C64.1509 75.286 63.2251 75.9064 62.446 76.6883C61.6668 77.4701 61.0497 78.3981 60.63 79.419C60.2103 80.4398 59.9962 81.5335 60.0001 82.6373V43.4323C60.0001 41.2081 60.8836 39.075 62.4564 37.5022C64.0291 35.9295 66.1622 35.0459 68.3865 35.0459H89.3634Z" stroke="white" stroke-width="5.05263" stroke-miterlimit="10"/>
<path d="M90.7895 73.7529V83.5284C90.7895 84.316 90.1511 84.9544 89.3636 84.9544H68.3866H51.6138H30.6369C29.8493 84.9544 29.2109 84.316 29.2109 83.5284V73.7529" stroke="white" stroke-width="5.05263" stroke-miterlimit="10"/>
</svg>
