<svg width="43" height="47" viewBox="0 0 43 47" fill="none" xmlns="http://www.w3.org/2000/svg">
<circle cx="21.5" cy="21.5" r="19.5" stroke="#005715" stroke-width="4"/>
<path d="M16 11C16 10.4696 16.2483 9.96086 16.6904 9.58579C17.1324 9.21071 17.732 9 18.3571 9H24.6429C25.268 9 25.8676 9.21071 26.3096 9.58579C26.7517 9.96086 27 10.4696 27 11C27 11.5304 26.7517 12.0391 26.3096 12.4142C25.8676 12.7893 25.268 13 24.6429 13H18.3571C17.732 13 17.1324 12.7893 16.6904 12.4142C16.2483 12.0391 16 11.5304 16 11Z" fill="#005715"/>
<path d="M11.7776 44.495L12.1276 41.7163L12.6967 37.1511L13.2202 32.9572C12.0107 31.4063 11.2611 29.5468 11.0568 27.5907C10.8525 25.6345 11.2017 23.6603 12.0647 21.893C12.9276 20.1256 14.2696 18.6362 15.9378 17.5943C17.606 16.5524 19.5332 16 21.5 16C23.4668 16 25.394 16.5524 27.0622 17.5943C28.7304 18.6362 30.0724 20.1256 30.9353 21.893C31.7983 23.6603 32.1475 25.6345 31.9432 27.5907C31.7389 29.5468 30.9893 31.4063 29.7798 32.9572L30.3063 37.1511L30.8754 41.7163L31.2254 44.495C31.2717 44.8629 31.221 45.2366 31.0786 45.579C30.9361 45.9213 30.7068 46.2206 30.4132 46.4472C30.1196 46.6737 29.772 46.8197 29.4047 46.8708C29.0374 46.9218 28.6631 46.876 28.3189 46.738L21.5015 44.0111L14.6841 46.738C14.3399 46.876 13.9657 46.9218 13.5984 46.8708C13.231 46.8197 12.8834 46.6737 12.5898 46.4472C12.2963 46.2206 12.0669 45.9213 11.9245 45.579C11.782 45.2366 11.7314 44.8629 11.7776 44.495Z" fill="#005715"/>
<path d="M21.5 37.3851C23.1266 37.3851 24.6676 37.031 26.0563 36.3988L26.7571 42L22.3244 40.2299C21.7952 40.0188 21.2048 40.0188 20.6756 40.2299L16.2429 41.9968L16.9437 36.3988C18.3293 37.031 19.8734 37.3851 21.5 37.3851Z" fill="#F9FFED"/>
<path d="M16.9038 21.8979C15.6848 23.1131 15 24.7613 15 26.4799C15 28.1985 15.6848 29.8466 16.9038 31.0619C18.1228 32.2771 19.7761 32.9598 21.5 32.9598C23.2239 32.9598 24.8772 32.2771 26.0962 31.0619C27.3152 29.8466 28 28.1985 28 26.4799C28 24.7613 27.3152 23.1131 26.0962 21.8979C24.8772 20.6827 23.2239 20 21.5 20C19.7761 20 18.1228 20.6827 16.9038 21.8979Z" fill="#F9FFED"/>
</svg>
