<svg width="120" height="120" viewBox="0 0 120 120" fill="none" xmlns="http://www.w3.org/2000/svg">
<path d="M53.041 40.5693C53.041 39.7291 53.3748 38.9233 53.9689 38.3292C54.563 37.7351 55.3687 37.4014 56.2089 37.4014H64.6566C65.4968 37.4014 66.3026 37.7351 66.8967 38.3292C67.4908 38.9233 67.8245 39.7291 67.8245 40.5693C67.8245 41.4094 67.4908 42.2152 66.8967 42.8093C66.3026 43.4034 65.4968 43.7372 64.6566 43.7372H56.2089C55.3687 43.7372 54.563 43.4034 53.9689 42.8093C53.3748 42.2152 53.041 41.4094 53.041 40.5693Z" fill="white"/>
<path d="M39.9365 26.9624H80.0635C82.552 26.9625 84.9386 27.9509 86.6982 29.7104C88.458 31.4702 89.4463 33.8575 89.4463 36.3462V76.4731C89.4462 77.7056 89.2042 78.9263 88.7324 80.0649C88.2606 81.2036 87.569 82.2385 86.6973 83.1099C85.8255 83.9812 84.7902 84.6717 83.6514 85.1431C82.5124 85.6144 81.2912 85.8565 80.0586 85.856H72.873L72.8896 85.9917L73.376 89.8481C73.4374 90.3379 73.3703 90.8357 73.1807 91.2915C72.991 91.7473 72.6848 92.1452 72.2939 92.4468C71.9031 92.7484 71.4402 92.9433 70.9512 93.0112C70.5235 93.0706 70.0886 93.0316 69.6797 92.8979L69.5059 92.8345L60.0439 89.0493L60 89.0317L59.9551 89.0493L50.4932 92.8345C50.035 93.0181 49.5368 93.0791 49.0479 93.0112C48.5588 92.9433 48.096 92.7484 47.7051 92.4468C47.3144 92.1452 47.009 91.7471 46.8193 91.2915C46.6297 90.8358 46.5616 90.3379 46.623 89.8481L47.1094 85.9917L47.126 85.856H39.9365C37.4478 85.856 35.0606 84.8677 33.3008 83.1079C31.5412 81.3482 30.5529 78.9616 30.5527 76.4731V36.3462C30.5527 33.8575 31.541 31.4702 33.3008 29.7104C35.0606 27.9507 37.4478 26.9624 39.9365 26.9624ZM66.0195 78.0024C64.1848 78.8402 62.1491 79.309 60 79.3091C57.8508 79.3091 55.81 78.8402 53.9795 78.0024L53.8311 77.9341L53.8105 78.0972L52.877 85.5776L52.8525 85.7788L53.041 85.7036L58.9463 83.3423C59.5379 83.1057 60.1893 83.076 60.7959 83.2534L61.0537 83.3423L66.958 85.7075L67.1475 85.7837L67.1221 85.5815L66.1885 78.0972L66.168 77.9341L66.0195 78.0024ZM39.9365 33.0581C39.0645 33.0581 38.2279 33.4044 37.6113 34.021C36.9947 34.6376 36.6484 35.4742 36.6484 36.3462V76.4731C36.6487 78.2879 38.1217 79.7603 39.9365 79.7603H47.8857L47.8994 79.6558L48.626 73.8354L48.6318 73.7856L48.6016 73.7466C46.9368 71.6119 45.9043 69.0523 45.623 66.3599C45.3418 63.6674 45.823 60.9497 47.0107 58.5171C48.1985 56.0846 50.0459 54.0351 52.3418 52.6011C54.6377 51.1671 57.2901 50.4059 59.9971 50.4058C62.7042 50.4058 65.3572 51.167 67.6533 52.6011C69.9493 54.0351 71.7966 56.0846 72.9844 58.5171C74.1722 60.9497 74.6533 63.6674 74.3721 66.3599C74.0909 69.0523 73.0583 71.6119 71.3936 73.7466L71.3633 73.7856L71.3691 73.8354L72.1006 79.6558L72.1133 79.7603H80.0635C80.9353 79.7601 81.7712 79.4139 82.3877 78.7974C83.0042 78.1809 83.3505 77.345 83.3506 76.4731V36.3462C83.3506 35.4742 83.0043 34.6376 82.3877 34.021C81.7712 33.4046 80.9352 33.0582 80.0635 33.0581H39.9365ZM60 56.0786C57.6717 56.0786 55.4384 57.0035 53.792 58.6499C52.1458 60.2962 51.2207 62.5288 51.2207 64.8569C51.2207 67.1852 52.1456 69.4186 53.792 71.0649C55.4384 72.7112 57.6717 73.6362 60 73.6362C62.3281 73.6361 64.5608 72.7111 66.207 71.0649C67.8534 69.4186 68.7783 67.1852 68.7783 64.8569C68.7783 62.5287 67.8533 60.2962 66.207 58.6499C64.5607 57.0036 62.3282 56.0787 60 56.0786Z" fill="white" stroke="#005715" stroke-width="0.24"/>
</svg>
