<svg width="100" height="100" viewBox="0 0 100 100" fill="none" xmlns="http://www.w3.org/2000/svg">
<path d="M73.0236 59.6781L68.8261 53.0052C68.6706 52.7649 68.4694 52.5576 68.2338 52.3951C67.9982 52.2326 67.7329 52.1181 67.4531 52.0581C67.1732 51.9982 66.8843 51.9939 66.6028 52.0456C66.3214 52.0973 66.0528 52.2039 65.8125 52.3594C65.5723 52.5149 65.365 52.7161 65.2025 52.9517C65.04 53.1873 64.9255 53.4526 64.8655 53.7324C64.8056 54.0123 64.8013 54.3012 64.853 54.5827C64.9047 54.8641 65.0113 55.1327 65.1668 55.373L69.3642 62.0459H51.6057L54.1887 59.3552C54.5759 58.921 54.7808 58.3544 54.7607 57.773C54.7407 57.1917 54.4972 56.6404 54.0811 56.234C53.6512 55.867 53.0941 55.6838 52.5302 55.7241C51.9664 55.7644 51.441 56.0248 51.0675 56.4492L45.0404 62.6916C44.6697 63.106 44.4648 63.6425 44.4648 64.1984C44.4648 64.7544 44.6697 65.2908 45.0404 65.7052L51.1752 71.9476C51.3667 72.1564 51.5996 72.3231 51.859 72.4371C52.1184 72.5512 52.3986 72.61 52.682 72.61C52.9653 72.61 53.2455 72.5512 53.5049 72.4371C53.7643 72.3231 53.9972 72.1564 54.1887 71.9476C54.3975 71.7561 54.5642 71.5232 54.6782 71.2638C54.7923 71.0044 54.8512 70.7242 54.8512 70.4408C54.8512 70.1575 54.7923 69.8772 54.6782 69.6179C54.5642 69.3585 54.3975 69.1256 54.1887 68.9341L51.8209 66.4586H69.3642C70.1396 66.4666 70.9021 66.2596 71.567 65.8607C72.2319 65.4617 72.7734 64.8864 73.1312 64.1984C73.5117 63.5018 73.7021 62.7173 73.6832 61.9238C73.6643 61.1303 73.4368 60.3558 73.0236 59.6781Z" fill="white"/>
<path d="M45.4712 39.8745L49.884 31.8024L58.0637 44.5024L54.6196 43.7491C54.0505 43.6519 53.4659 43.7762 52.9856 44.0964C52.5053 44.4166 52.1657 44.9085 52.0365 45.4711C51.9736 45.74 51.9659 46.0189 52.0137 46.2909C52.0616 46.5629 52.164 46.8224 52.3149 47.0537C52.4658 47.285 52.6619 47.4834 52.8915 47.6368C53.1212 47.7903 53.3795 47.8956 53.6509 47.9465L62.0459 49.7762H62.4764C62.894 49.7857 63.3054 49.6735 63.6603 49.4533C64.121 49.1191 64.4306 48.616 64.5213 48.0542L66.351 39.4439C66.4481 38.8749 66.3238 38.2903 66.0036 37.81C65.6834 37.3297 65.1916 36.9901 64.6289 36.8609C64.0599 36.7638 63.4753 36.8881 62.995 37.2083C62.5147 37.5285 62.1751 38.0203 62.0459 38.5829L61.4001 41.8118L53.5433 29.4346C53.1754 28.8186 52.6558 28.3072 52.034 27.9492C51.4122 27.5912 50.709 27.3985 49.9916 27.3896C49.2714 27.3977 48.5636 27.5777 47.9271 27.9147C47.2905 28.2517 46.7438 28.7359 46.3322 29.3269L41.7043 37.7219C41.4937 38.2149 41.4747 38.7686 41.6508 39.2749C41.827 39.7811 42.1857 40.2035 42.6568 40.4592C43.1279 40.7149 43.6775 40.7857 44.198 40.6576C44.7185 40.5296 45.1725 40.2119 45.4712 39.7668V39.8745Z" fill="white"/>
<path d="M41.7033 45.4711C41.659 45.1796 41.5487 44.902 41.3808 44.6595C41.2129 44.417 40.9919 44.2161 40.7346 44.072C40.5026 43.9092 40.2393 43.7965 39.9614 43.7409C39.6834 43.6853 39.397 43.6881 39.1202 43.7491L30.7253 45.3635C30.1826 45.5153 29.7162 45.8644 29.4176 46.3422C29.1189 46.8201 29.0095 47.3923 29.1108 47.9466C29.1617 48.218 29.2671 48.4763 29.4205 48.706C29.574 48.9356 29.7724 49.1317 30.0037 49.2826C30.235 49.4335 30.4945 49.5359 30.7665 49.5838C31.0385 49.6316 31.3174 49.6239 31.5863 49.561L34.3846 49.0228L27.0659 59.5704C26.6158 60.2506 26.3582 61.0399 26.3203 61.8547C26.2824 62.6694 26.4657 63.4793 26.8507 64.1984C27.2085 64.8863 27.7499 65.4616 28.4149 65.8606C29.0798 66.2595 29.8422 66.4665 30.6176 66.4585H38.2592C38.8301 66.4585 39.3776 66.2317 39.7813 65.8281C40.185 65.4244 40.4118 64.8769 40.4118 64.306C40.4118 63.7351 40.185 63.1876 39.7813 62.7839C39.3776 62.3802 38.8301 62.1534 38.2592 62.1534H30.6176L38.3668 51.0678L39.0126 55.05C39.1132 55.5435 39.3837 55.9861 39.7771 56.3008C40.1704 56.6154 40.6616 56.7822 41.1651 56.772H41.5957C42.1583 56.6428 42.6501 56.3032 42.9703 55.8229C43.2905 55.3426 43.4148 54.758 43.3177 54.189L41.7033 45.4711Z" fill="white"/>
</svg>
