<svg width="100" height="96" viewBox="0 0 100 96" fill="none" xmlns="http://www.w3.org/2000/svg">
<path d="M98.6047 68.1633L89.7433 54.076C89.4151 53.5687 88.9902 53.1311 88.4928 52.7881C87.9955 52.445 87.4354 52.2033 86.8446 52.0767C86.2539 51.9501 85.644 51.9411 85.0497 52.0503C84.4555 52.1594 83.8886 52.3845 83.3813 52.7127C82.8741 53.0409 82.4364 53.4658 82.0934 53.9632C81.7503 54.4605 81.5086 55.0206 81.382 55.6114C81.2555 56.2021 81.2465 56.812 81.3556 57.4063C81.4647 58.0005 81.6898 58.5675 82.018 59.0747L90.8794 73.162H53.389L58.8421 67.4817C59.6594 66.5651 60.0919 65.3688 60.0496 64.1415C60.0073 62.9142 59.4934 61.7505 58.6149 60.8924C57.7072 60.1176 56.5312 59.731 55.3408 59.816C54.1504 59.901 53.0412 60.4509 52.2529 61.3469L39.5289 74.5253C38.7464 75.4001 38.3138 76.5326 38.3138 77.7063C38.3138 78.88 38.7464 80.0125 39.5289 80.8873L52.4801 94.0658C52.8845 94.5065 53.3761 94.8584 53.9237 95.0992C54.4713 95.3399 55.0629 95.4642 55.6611 95.4642C56.2593 95.4642 56.8509 95.3399 57.3985 95.0992C57.9461 94.8584 58.4377 94.5065 58.8421 94.0658C59.2829 93.6614 59.6348 93.1698 59.8755 92.6222C60.1163 92.0746 60.2406 91.4829 60.2406 90.8848C60.2406 90.2866 60.1163 89.6949 59.8755 89.1473C59.6348 88.5998 59.2829 88.1082 58.8421 87.7038L53.8434 82.4778H90.8794C92.5163 82.4947 94.1259 82.0577 95.5297 81.2155C96.9334 80.3732 98.0764 79.1586 98.8319 77.7063C99.6352 76.2357 100.037 74.5796 99.9972 72.9044C99.9573 71.2292 99.4771 69.594 98.6047 68.1633Z" fill="#90B73B"/>
<path d="M40.4373 26.3569L49.7531 9.3158L67.0214 36.1271L59.7505 34.5366C58.5492 34.3316 57.315 34.594 56.301 35.27C55.287 35.946 54.5701 36.9843 54.2973 38.1721C54.1646 38.7398 54.1483 39.3285 54.2493 39.9027C54.3503 40.477 54.5665 41.0248 54.885 41.5131C55.2035 42.0015 55.6176 42.4203 56.1024 42.7442C56.5872 43.0682 57.1325 43.2906 57.7056 43.398L75.4283 47.2606H76.3372C77.2188 47.2808 78.0872 47.0439 78.8365 46.579C79.8091 45.8734 80.4627 44.8114 80.6542 43.6252L84.5169 25.448C84.7219 24.2468 84.4595 23.0125 83.7835 21.9986C83.1075 20.9846 82.0692 20.2677 80.8815 19.9949C79.6802 19.7899 78.446 20.0523 77.432 20.7283C76.418 21.4042 75.7011 22.4426 75.4283 23.6303L74.065 30.4468L57.4783 4.31708C56.7017 3.01665 55.6047 1.93701 54.292 1.18123C52.9793 0.425449 51.4948 0.0187638 49.9803 0C48.4599 0.0169858 46.9656 0.39701 45.6218 1.10842C44.278 1.81983 43.1237 2.84202 42.255 4.08986L32.4847 21.8126C32.0402 22.8533 32 24.0224 32.372 25.0911C32.7439 26.1599 33.5012 27.0514 34.4958 27.5913C35.4903 28.1312 36.6505 28.2806 37.7494 28.0103C38.8482 27.74 39.8067 27.0694 40.4373 26.1297V26.3569Z" fill="#90B73B"/>
<path d="M32.4856 38.1712C32.392 37.5556 32.1592 36.9696 31.8048 36.4577C31.4504 35.9458 30.9838 35.5216 30.4406 35.2174C29.9508 34.8738 29.3949 34.6357 28.8082 34.5184C28.2214 34.4011 27.6167 34.407 27.0324 34.5357L9.30967 37.944C8.16404 38.2644 7.17944 39.0013 6.54894 40.0101C5.91845 41.0189 5.68752 42.2269 5.90146 43.3971C6.00889 43.9702 6.23129 44.5155 6.55524 45.0003C6.87919 45.485 7.29797 45.8991 7.78633 46.2176C8.27468 46.5361 8.82249 46.7524 9.39671 46.8534C9.97093 46.9544 10.5597 46.938 11.1274 46.8053L17.035 45.6692L1.58438 67.9363C0.634219 69.3723 0.0903104 71.0387 0.0103075 72.7588C-0.0696953 74.4788 0.317188 76.1885 1.12995 77.7065C1.88542 79.1588 3.02841 80.3734 4.43216 81.2157C5.8359 82.0579 7.44552 82.4949 9.08246 82.478H25.2147C26.4199 82.478 27.5758 81.9992 28.428 81.147C29.2802 80.2948 29.759 79.1389 29.759 77.9337C29.759 76.7285 29.2802 75.5726 28.428 74.7204C27.5758 73.8682 26.4199 73.3894 25.2147 73.3894H9.08246L25.4419 49.9863L26.8052 58.3933C27.0177 59.4352 27.5887 60.3696 28.4191 61.0338C29.2494 61.6981 30.2864 62.0501 31.3495 62.0287H32.2584C33.4461 61.7559 34.4844 61.039 35.1604 60.025C35.8364 59.011 36.0988 57.7768 35.8938 56.5755L32.4856 38.1712Z" fill="#90B73B"/>
</svg>
