<svg width="76" height="76" viewBox="0 0 76 76" fill="none" xmlns="http://www.w3.org/2000/svg">
<path d="M55.709 31.7497L37.4446 21.6028C37.1426 21.435 36.7754 21.435 36.4733 21.6028L19.7825 30.8755C19.0966 31.2565 19.0966 32.2428 19.7824 32.6238L24.459 35.222M55.709 31.7497L49.459 35.222M55.709 31.7497C56.9859 32.388 57.7923 33.693 57.7923 35.1205V46.3326M24.459 35.222L36.4733 41.8965C36.7754 42.0643 37.1426 42.0643 37.4446 41.8965L49.459 35.222M24.459 35.222V46.5452C24.459 47.2715 24.8528 47.9407 25.4877 48.2935L35.9877 54.1267C36.5917 54.4623 37.3262 54.4623 37.9303 54.1267L48.4303 48.2935C49.0652 47.9407 49.459 47.2715 49.459 46.5452V35.222" stroke="white" stroke-width="3" stroke-linecap="round" stroke-linejoin="round"/>
</svg>
