<svg width="100" height="100" viewBox="0 0 100 100" fill="none" xmlns="http://www.w3.org/2000/svg">
<path d="M24.0688 65.2944C29.569 56.0876 43.2 46.8807 50.6133 45.9241C51.0169 45.863 51.4295 45.9063 51.8117 46.0498C52.194 46.1933 52.5331 46.4322 52.7968 46.7439C53.0605 47.0555 53.24 47.4295 53.3183 47.8302C53.3965 48.2309 53.3709 48.645 53.2438 49.0329C53.087 49.458 52.8127 49.8297 52.4529 50.1049C52.093 50.3801 51.6624 50.5474 51.2111 50.5874C47.8632 51.1852 42.1238 54.1744 36.9823 58.2398C41.2869 62.3052 47.7436 64.0987 53.0047 62.5443C62.2115 59.9138 66.8748 48.0764 70.2227 38.2717L61.1354 36.9564C53.2438 35.5216 46.4283 34.3259 41.8847 37.4347C37.3411 40.5435 37.1019 43.4132 36.3845 47.359L33.2757 49.5112C33.09 49.6525 32.867 49.7364 32.6342 49.7524C32.4014 49.7685 32.169 49.7161 31.9656 49.6017C31.7622 49.4873 31.5967 49.3159 31.4896 49.1086C31.3824 48.9013 31.3383 48.6672 31.3626 48.4351C32.08 42.8153 33.8735 37.1956 39.1346 33.6085C44.3957 30.0214 53.3634 30.7388 61.9724 32.1736C65.8034 32.9262 69.6767 33.4453 73.5707 33.728H75.1251C75.3175 33.7073 75.5119 33.7389 75.6879 33.8194C75.8639 33.8999 76.0149 34.0263 76.1251 34.1854C76.2352 34.3445 76.3004 34.5304 76.3138 34.7235C76.3272 34.9165 76.2883 35.1096 76.2012 35.2824L75.7229 36.7173C72.0162 47.9568 66.8748 63.3813 54.4395 67.088C52.685 67.5611 50.8761 67.8022 49.0589 67.8054C43.1876 67.7556 37.5512 65.4925 33.2757 61.4682C31.3217 63.3738 29.5962 65.5005 28.1342 67.8054C27.9373 68.1716 27.6436 68.4768 27.2852 68.6876C26.9267 68.8985 26.5173 69.0069 26.1015 69.0011C25.5459 69.0098 25.0017 68.8424 24.5471 68.5228C24.0958 68.1299 23.7996 67.5888 23.7119 66.9969C23.6243 66.405 23.7508 65.8013 24.0688 65.2944Z" fill="white"/>
</svg>
