<svg width="100" height="73" viewBox="0 0 100 73" fill="none" xmlns="http://www.w3.org/2000/svg">
<path d="M0.729591 65.1631C11.18 47.6701 37.0788 30.177 51.1641 28.3596C51.931 28.2435 52.7149 28.3256 53.4411 28.5983C54.1673 28.8709 54.8116 29.3249 55.3127 29.9171C55.8138 30.5093 56.1549 31.2198 56.3035 31.9811C56.4522 32.7425 56.4035 33.5292 56.1621 34.2663C55.8642 35.0739 55.343 35.7802 54.6593 36.303C53.9755 36.8259 53.1574 37.1438 52.3 37.2197C45.9389 38.3556 35.0341 44.0352 25.2653 51.7594C33.4438 59.4836 45.7117 62.8913 55.7077 59.9379C73.2008 54.9399 82.0609 32.4489 88.422 13.8199L71.1561 11.3209C56.1621 8.59471 43.2127 6.32289 34.5798 12.2296C25.9468 18.1364 25.4925 23.5887 24.1294 31.0858L18.2226 35.175C17.8698 35.4435 17.446 35.6028 17.0037 35.6333C16.5614 35.6639 16.1198 35.5643 15.7334 35.347C15.347 35.1296 15.0326 34.8039 14.829 34.4101C14.6254 34.0162 14.5416 33.5714 14.5877 33.1304C15.9508 22.4528 19.3585 11.7753 29.3546 4.95979C39.3506 -1.85568 56.3893 -0.492581 72.7464 2.23361C80.0253 3.66353 87.3845 4.6498 94.7831 5.18698H97.7364C98.102 5.14761 98.4715 5.20755 98.8058 5.36049C99.1402 5.51344 99.4272 5.75372 99.6364 6.05604C99.8457 6.35835 99.9696 6.71151 99.9951 7.07832C100.021 7.44513 99.9466 7.81202 99.7811 8.14035L98.8724 10.8665C91.8297 32.2217 82.0609 61.5282 58.4339 68.5708C55.1003 69.4697 51.6633 69.928 48.2107 69.9339C37.0552 69.8394 26.346 65.5395 18.2226 57.8933C14.51 61.514 11.2316 65.5548 8.4538 69.9339C8.07962 70.6298 7.52162 71.2096 6.84061 71.6102C6.15961 72.0108 5.38171 72.2168 4.5917 72.2058C3.53596 72.2224 2.50208 71.9043 1.63833 71.297C0.780853 70.5506 0.218132 69.5224 0.0515213 68.3978C-0.115082 67.2732 0.125381 66.1261 0.729591 65.1631Z" fill="#90B73B"/>
</svg>
