<svg width="120" height="120" viewBox="0 0 120 120" fill="none" xmlns="http://www.w3.org/2000/svg">
<path d="M28.4209 70.5262H91.5788M28.4209 84.5613H70.5262M28.4209 42.456H56.4911M28.4209 56.4911H56.4911M85.9648 56.4911H76.1402C74.1749 56.4911 73.1925 56.4911 72.4419 56.1087C71.7816 55.7722 71.2451 55.2357 70.9086 54.5753C70.5262 53.8248 70.5262 52.8422 70.5262 50.8771V41.0525C70.5262 39.0874 70.5262 38.1049 70.9086 37.3543C71.2451 36.6941 71.7816 36.1573 72.4419 35.8209C73.1925 35.4385 74.1749 35.4385 76.1402 35.4385H85.9648C87.93 35.4385 88.9125 35.4385 89.663 35.8209C90.3234 36.1573 90.8598 36.6941 91.1963 37.3543C91.5788 38.1049 91.5788 39.0874 91.5788 41.0525V50.8771C91.5788 52.8422 91.5788 53.8248 91.1963 54.5753C90.8598 55.2357 90.3234 55.7722 89.663 56.1087C88.9125 56.4911 87.93 56.4911 85.9648 56.4911Z" stroke="white" stroke-width="5.36842" stroke-linecap="round" stroke-linejoin="round"/>
</svg>
