<svg width="21" height="25" viewBox="0 0 21 25" fill="none" xmlns="http://www.w3.org/2000/svg">
<path d="M17.0996 11.0996V4.84861C17.0997 4.76967 17.0842 4.6915 17.054 4.61857C17.0238 4.54564 16.9795 4.47939 16.9236 4.42361L13.7756 1.27561C13.6632 1.16306 13.5107 1.09975 13.3516 1.09961H1.69961C1.54048 1.09961 1.38787 1.16282 1.27535 1.27535C1.16282 1.38787 1.09961 1.54048 1.09961 1.69961V20.4996C1.09961 20.6587 1.16282 20.8114 1.27535 20.9239C1.38787 21.0364 1.54048 21.0996 1.69961 21.0996H10.0996M5.09961 11.0996C8.2238 11.0996 13.0996 11.0996 13.0996 11.0996M5.09961 6.09961C6.66171 6.09961 7.53751 6.09961 9.09961 6.09961M5.09961 16.0996H8.09961M12.0996 2.09961V5.49961C12.0996 5.65874 12.1628 5.81135 12.2753 5.92387C12.3879 6.0364 12.5405 6.09961 12.6996 6.09961H16.0996M16.0916 15.2246L18.6476 15.8736C18.9136 15.9416 19.1006 16.1836 19.0926 16.4576C18.9206 22.2156 15.5996 23.0996 15.5996 23.0996C15.5996 23.0996 12.2786 22.2156 12.1066 16.4576C12.1039 16.3243 12.1464 16.194 12.2272 16.088C12.308 15.9819 12.4224 15.9063 12.5516 15.8736L15.1076 15.2246C15.4306 15.1426 15.7686 15.1426 16.0916 15.2246Z" stroke="white" stroke-width="2.2" stroke-linecap="round" stroke-linejoin="round"/>
</svg>
