<svg width="100" height="95" viewBox="0 0 100 95" fill="none" xmlns="http://www.w3.org/2000/svg">
<path d="M45.6621 2.07715C48.0148 0.194955 51.2861 0.0597461 53.7715 1.66992L54.3516 2.08789L75.9004 19.3271C77.7903 20.8394 79.0143 23.0073 79.3506 25.3711L79.4053 25.8467L79.4443 26.7012V39.8545H90C94.9718 39.8545 99.0456 43.6967 99.416 48.5732H99.417L99.4443 49.3193V88.7998C99.4441 91.3422 97.5243 93.4361 95.0557 93.7119L94.4697 93.7441H5.5C3.03135 93.7441 0.984772 91.9341 0.615234 89.5693L0.584961 89.3389L0.555664 88.7871V49.2998C0.555664 44.3222 4.40641 40.243 9.29102 39.8809L10.0205 39.8545H20.5557V26.7012C20.5558 24.2805 21.4843 21.9707 23.1201 20.2314L23.4561 19.8916L24.1006 19.3271L45.6621 2.07715ZM9.44434 84.8545H20.5557V48.7441H9.44434V84.8545ZM79.4443 84.8545H90.5557V48.7441H79.4443V84.8545ZM50 29.8545C57.9777 29.8545 64.4443 36.3224 64.4443 44.2998C64.4441 52.2773 57.9775 58.7441 50 58.7441C42.0225 58.7441 35.5559 52.2773 35.5557 44.2998C35.5557 36.3224 42.0223 29.8545 50 29.8545ZM50 38.7441C46.9317 38.7441 44.4443 41.2315 44.4443 44.2998C44.4446 47.3679 46.9318 49.8545 50 49.8545C53.0682 49.8545 55.5554 47.3679 55.5557 44.2998C55.5557 41.2315 53.0683 38.7441 50 38.7441ZM70.5557 26.4346L70.3467 26.2676L50 9.99023L29.6533 26.2676L29.4443 26.4346V84.8535H70.5557V26.4346Z" fill="#90B73B" stroke="#E9E9E9" stroke-width="1.11111"/>
</svg>
