<svg width="100" height="100" viewBox="0 0 100 100" fill="none" xmlns="http://www.w3.org/2000/svg">
<path d="M47.8145 28.2363C48.9993 27.2884 50.6464 27.2201 51.8984 28.0303H51.8994L52.1895 28.2393L62.5352 36.5156C63.4757 37.2681 64.0847 38.3472 64.252 39.5234L64.2793 39.7598L64.2988 40.1895V46.333H69.2002C71.677 46.3331 73.7062 48.2497 73.8857 50.6807L73.8984 51.0352V69.9922C73.8983 71.2186 73.0285 72.2417 71.8721 72.4785L71.6367 72.5156L71.3545 72.5303H28.6396C27.3313 72.5301 26.254 71.5403 26.1162 70.2686L26.1016 69.9863V51.0322C26.1016 48.5568 28.0155 46.5274 30.4443 46.3457L30.4453 46.3467L30.8037 46.333H35.7012V40.1846C35.7013 38.9015 36.2259 37.6811 37.1416 36.7998L37.4688 36.5127L37.4678 36.5117L47.8145 28.2363ZM30.6982 67.9336H35.7012V50.9307H30.6982V67.9336ZM64.2988 67.9336H69.3018V50.9307H64.2988V67.9336ZM50 41.5332C53.9206 41.5332 57.0986 44.7114 57.0986 48.6318C57.0986 52.5524 53.9206 55.7305 50 55.7305C46.0794 55.7305 42.9014 52.5524 42.9014 48.6318C42.9014 44.7114 46.0794 41.5332 50 41.5332ZM50 46.1309C48.6185 46.1309 47.499 47.2504 47.499 48.6318C47.499 50.0133 48.6185 51.1328 50 51.1328C51.3815 51.1328 52.501 50.0133 52.501 48.6318C52.501 47.2504 51.3815 46.1309 50 46.1309ZM59.7012 40.1357L59.6631 40.1055L50 32.375L40.3369 40.1055L40.2988 40.1357V67.9326H59.7012V40.1357Z" fill="white" stroke="#005715" stroke-width="0.202667"/>
</svg>
