<svg width="120" height="120" viewBox="0 0 120 120" fill="none" xmlns="http://www.w3.org/2000/svg">
<path d="M73.0844 50.9368C73.1937 51.6806 73.0053 52.4375 72.5601 53.0434C72.115 53.6493 71.4489 54.0552 70.7064 54.1732C70.3439 54.231 69.9734 54.2161 69.6166 54.1296C69.2598 54.043 68.9238 53.8865 68.628 53.669C68.3322 53.4515 68.0825 53.1774 67.8935 52.8626C67.7045 52.5479 67.5799 52.1987 67.527 51.8354L67.513 51.7379C67.1957 49.5473 66.022 47.5722 64.2497 46.2464C62.4773 44.9206 60.2512 44.3524 58.0602 44.6667C57.3214 44.7729 56.5706 44.5813 55.9731 44.134C55.3755 43.6867 54.9802 43.0203 54.8739 42.2815C54.7677 41.5427 54.9593 40.792 55.4066 40.1944C55.8539 39.5969 56.5203 39.2015 57.2591 39.0953C60.9268 38.5724 64.6522 39.5254 67.6183 41.7453C70.5845 43.9652 72.5519 47.2704 73.0844 50.9368Z" fill="white"/>
<path d="M75.9853 75.8777L90.7899 90.7894M83.9478 56.5789C83.9478 71.6941 71.6946 83.9473 56.5794 83.9473C41.4642 83.9473 29.2109 71.6941 29.2109 56.5789C29.2109 41.4637 41.4642 29.2104 56.5794 29.2104C71.6946 29.2104 83.9478 41.4637 83.9478 56.5789Z" stroke="white" stroke-width="5.36842" stroke-linecap="round" stroke-linejoin="round"/>
</svg>
