<svg width="120" height="120" viewBox="0 0 120 120" fill="none" xmlns="http://www.w3.org/2000/svg">
<path d="M60 90C76.5684 90 90 76.5684 90 60C90 43.4314 76.5684 30 60 30C43.4314 30 30 43.4314 30 60C30 76.5684 43.4314 90 60 90Z" stroke="white" stroke-width="5.36842" stroke-linecap="round" stroke-linejoin="round"/>
<path d="M52.5 50.8955C52.5 49.4636 52.5 48.7477 52.7992 48.348C53.06 47.9997 53.4591 47.7818 53.8931 47.7508C54.3912 47.7152 54.9933 48.1024 56.1978 48.8767L70.3596 57.9808C71.4048 58.6525 71.9274 58.9885 72.1077 59.4157C72.2655 59.7889 72.2655 60.2101 72.1077 60.5833C71.9274 61.0105 71.4048 61.3465 70.3596 62.0182L56.1978 71.1223C54.9933 71.8966 54.3912 72.2839 53.8931 72.2482C53.4591 72.2173 53.06 71.9992 52.7992 71.6509C52.5 71.2513 52.5 70.5355 52.5 69.1036V50.8955Z" stroke="white" stroke-width="5.36842" stroke-linecap="round" stroke-linejoin="round"/>
</svg>
